<svg width="457" height="457" viewBox="0 0 457 457" fill="none" xmlns="http://www.w3.org/2000/svg">
<rect width="457" height="457" fill="#0C0C0C"/>
<path d="M110 372.747V86.2974H175.111C216.025 86.2974 234.503 101.326 234.503 147.322V169.636C234.063 201.059 226.144 215.632 206.347 220.642V226.107C229.664 231.116 238.902 246.6 238.902 287.131V309.446C237.582 358.174 217.345 372.747 176.431 372.747H110ZM172.031 255.708H164.113V320.375H172.031C176.871 320.375 182.59 315.821 182.59 308.99V267.093C182.59 260.262 176.871 255.708 172.031 255.708ZM164.113 138.669V203.336H170.712C175.551 203.336 181.27 198.782 181.27 191.951V150.054C181.27 143.223 175.551 138.669 170.712 138.669H164.113Z" fill="#EAE6E5"/>
<path d="M320.605 239.724L347.455 243.176L330.104 378.128L292.34 373.273L295.977 288.028L293.576 287.72L275.532 371.112L237.768 366.257L255.119 231.304L281.968 234.756L268.232 320.884L270.852 321.22L291.355 235.963L311.219 238.517L309.489 326.188L311.89 326.497L320.605 239.724Z" fill="#EAE6E5"/>
<path d="M281.492 222.237L254.57 225.076L240.302 89.7627L278.167 85.7699L294.304 169.552L296.712 169.298L295.02 83.9928L332.885 80L347.153 215.313L320.232 218.152L313.717 131.18L311.09 131.457L310.82 219.145L290.903 221.245L272.35 135.542L269.942 135.796L281.492 222.237Z" fill="#EAE6E5"/>
</svg>
